<svg width="135" height="46" viewBox="0 0 135 46" fill="none" xmlns="http://www.w3.org/2000/svg">
<path d="M126.68 1.13281H7.94444C4.08995 1.13281 0.965271 4.25749 0.965271 8.11198V37.8898C0.965271 41.7442 4.08995 44.8689 7.94444 44.8689H126.68C130.534 44.8689 133.659 41.7442 133.659 37.8898V8.11198C133.659 4.25749 130.534 1.13281 126.68 1.13281Z" fill="#050038"/>
<path d="M28.1594 23.3354C28.1714 22.4034 28.419 21.4895 28.8791 20.6789C29.3391 19.8682 29.9969 19.1871 30.7909 18.6989C30.2864 17.9785 29.621 17.3857 28.8473 16.9674C28.0737 16.5492 27.2131 16.3171 26.3341 16.2896C24.4589 16.0927 22.6411 17.4116 21.6855 17.4116C20.7115 17.4116 19.2403 16.3091 17.6561 16.3417C16.6313 16.3748 15.6326 16.6728 14.7573 17.2066C13.882 17.7405 13.1598 18.4919 12.6613 19.3878C10.5017 23.1268 12.1126 28.622 14.1813 31.6444C15.2164 33.1243 16.426 34.7776 18.0088 34.7189C19.5577 34.6546 20.1362 33.7312 22.0058 33.7312C23.8581 33.7312 24.4008 34.7189 26.0157 34.6816C27.6777 34.6546 28.7249 33.1951 29.7236 31.701C30.4673 30.6465 31.0395 29.4811 31.4192 28.2478C30.4536 27.8394 29.6296 27.1558 29.0499 26.2822C28.4703 25.4087 28.1605 24.3838 28.1594 23.3354Z" fill="white"/>
<path d="M25.1083 14.3021C26.0145 13.2142 26.4609 11.8159 26.3528 10.4043C24.9683 10.5496 23.6895 11.2114 22.771 12.2575C22.322 12.7686 21.9781 13.3631 21.7589 14.0071C21.5398 14.6512 21.4497 15.3321 21.4939 16.011C22.1863 16.0182 22.8714 15.8681 23.4975 15.572C24.1236 15.276 24.6744 14.8418 25.1083 14.3021Z" fill="white"/>
<path d="M47.7391 30.9723H42.4535L41.1842 34.7203H38.9454L43.9518 20.8535H46.2778L51.2843 34.7203H49.0073L47.7391 30.9723ZM43.0009 29.2428H47.1906L45.1253 23.16H45.0675L43.0009 29.2428Z" fill="white"/>
<path d="M62.0963 29.6671C62.0963 32.8088 60.4147 34.8273 57.8771 34.8273C57.2343 34.8609 56.595 34.7128 56.0325 34.4001C55.4699 34.0872 55.0068 33.6223 54.6962 33.0585H54.6482V38.066H52.573V24.6116H54.5817V26.2931H54.6198C54.9448 25.732 55.4156 25.2696 55.9825 24.9548C56.5494 24.64 57.1909 24.4849 57.839 24.5058C60.4048 24.5058 62.0963 26.5341 62.0963 29.6671ZM59.9633 29.6671C59.9633 27.6202 58.9055 26.2746 57.2915 26.2746C55.706 26.2746 54.6395 27.6486 54.6395 29.6671C54.6395 31.7042 55.706 33.0684 57.2915 33.0684C58.9055 33.0684 59.9633 31.7325 59.9633 29.6671Z" fill="white"/>
<path d="M73.2248 29.6671C73.2248 32.8088 71.5432 34.8273 69.0056 34.8273C68.3628 34.8609 67.7235 34.7128 67.161 34.4C66.5984 34.0872 66.1353 33.6223 65.8246 33.0585H65.7766V38.066H63.7015V24.6116H65.7101V26.2931H65.7483C66.0732 25.732 66.5441 25.2695 67.1109 24.9548C67.6778 24.64 68.3194 24.4849 68.9674 24.5058C71.5334 24.5058 73.2248 26.5341 73.2248 29.6671ZM71.0918 29.6671C71.0918 27.6202 70.0339 26.2746 68.42 26.2746C66.8345 26.2746 65.768 27.6486 65.768 29.6671C65.768 31.7042 66.8345 33.0684 68.42 33.0684C70.034 33.0684 71.0918 31.7325 71.0918 29.6671Z" fill="white"/>
<path d="M80.5783 30.8574C80.7321 32.2325 82.0679 33.1354 83.8934 33.1354C85.6426 33.1354 86.901 32.2325 86.901 30.9926C86.901 29.9162 86.142 29.2718 84.3449 28.8301L82.5477 28.3972C80.0015 27.7822 78.8194 26.5914 78.8194 24.659C78.8194 22.2664 80.9044 20.623 83.865 20.623C86.7952 20.623 88.8039 22.2664 88.8715 24.659H86.7767C86.6513 23.2751 85.5074 22.4399 83.8356 22.4399C82.1639 22.4399 81.02 23.285 81.02 24.5151C81.02 25.4954 81.7506 26.0723 83.5379 26.5138L85.0656 26.889C87.9107 27.5618 89.0929 28.7047 89.0929 30.733C89.0929 33.3273 87.0264 34.9521 83.7396 34.9521C80.6645 34.9521 78.5881 33.3654 78.454 30.8573L80.5783 30.8574Z" fill="white"/>
<path d="M93.5723 22.2188V24.6113H95.4949V26.2547H93.5723V31.8281C93.5723 32.694 93.9567 33.0975 94.8016 33.0975C95.0305 33.0935 95.2585 33.0775 95.4846 33.0495V34.6831C95.105 34.7541 94.7188 34.7862 94.3317 34.779C92.2852 34.779 91.4869 34.0102 91.4869 32.0495V26.2547H90.017V24.6113H91.4869V22.2188H93.5723Z" fill="white"/>
<path d="M96.6069 29.6662C96.6069 26.4853 98.481 24.4863 101.402 24.4863C104.333 24.4863 106.198 26.4852 106.198 29.6662C106.198 32.8558 104.344 34.846 101.402 34.846C98.4624 34.846 96.6069 32.8558 96.6069 29.6662ZM104.084 29.6662C104.084 27.4841 103.084 26.1962 101.402 26.1962C99.7205 26.1962 98.722 27.4939 98.722 29.6662C98.722 31.857 99.7205 33.135 101.402 33.135C103.084 33.135 104.084 31.857 104.084 29.6662Z" fill="white"/>
<path d="M107.908 24.6115H109.888V26.3322H109.935C110.069 25.7948 110.385 25.3198 110.828 24.9872C111.27 24.6546 111.814 24.4845 112.368 24.5057C112.607 24.5048 112.845 24.5308 113.079 24.5831V26.5241C112.776 26.4319 112.462 26.3895 112.146 26.3987C111.845 26.3865 111.544 26.4396 111.265 26.5546C110.986 26.6694 110.735 26.8433 110.53 27.0643C110.324 27.2853 110.169 27.5481 110.075 27.8347C109.981 28.1213 109.949 28.425 109.984 28.7247V34.7214H107.908V24.6115Z" fill="white"/>
<path d="M122.648 31.7512C122.368 33.5865 120.582 34.846 118.294 34.846C115.354 34.846 113.528 32.8755 113.528 29.7142C113.528 26.543 115.363 24.4863 118.207 24.4863C121.004 24.4863 122.763 26.4077 122.763 29.4732V30.1841H115.623V30.3096C115.59 30.6816 115.637 31.0564 115.76 31.4091C115.882 31.7619 116.079 32.0843 116.336 32.3551C116.593 32.626 116.906 32.839 117.251 32.9801C117.597 33.121 117.97 33.1869 118.343 33.1732C118.833 33.2191 119.325 33.1056 119.746 32.8493C120.167 32.5931 120.493 32.208 120.678 31.7512H122.648ZM115.633 28.7338H120.687C120.705 28.3992 120.655 28.0645 120.538 27.7504C120.422 27.4365 120.241 27.1499 120.008 26.909C119.775 26.6681 119.495 26.4779 119.185 26.3503C118.875 26.2228 118.542 26.1607 118.207 26.1678C117.869 26.1659 117.534 26.2307 117.221 26.3589C116.909 26.487 116.625 26.6758 116.385 26.9144C116.146 27.1529 115.956 27.4366 115.827 27.7489C115.698 28.0611 115.632 28.3959 115.633 28.7338V28.7338Z" fill="white"/>
<path d="M42.7407 10.4157C43.1757 10.3846 43.6123 10.4503 44.0189 10.6082C44.4255 10.7661 44.7919 11.0123 45.0919 11.3291C45.3918 11.6458 45.6177 12.025 45.7533 12.4397C45.8888 12.8543 45.9307 13.2938 45.8758 13.7265C45.8758 15.8551 44.7254 17.0787 42.7407 17.0787H40.3339V10.4157H42.7407ZM41.3688 16.1364H42.625C42.9359 16.155 43.2471 16.104 43.5358 15.9873C43.8244 15.8704 44.0835 15.6907 44.294 15.4611C44.5045 15.2316 44.6611 14.958 44.7525 14.6603C44.844 14.3625 44.8678 14.0482 44.8224 13.7401C44.8645 13.4332 44.8382 13.1208 44.7454 12.8252C44.6526 12.5297 44.4956 12.2583 44.2855 12.0306C44.0756 11.8029 43.8177 11.6244 43.5307 11.508C43.2436 11.3916 42.9344 11.3402 42.625 11.3574H41.3688V16.1364Z" fill="white"/>
<path d="M47.0444 14.5621C47.0128 14.2317 47.0507 13.8983 47.1554 13.5833C47.2602 13.2683 47.4297 12.9787 47.6529 12.7331C47.8761 12.4875 48.1483 12.2912 48.4519 12.1568C48.7554 12.0225 49.0837 11.9531 49.4157 11.9531C49.7477 11.9531 50.076 12.0225 50.3795 12.1568C50.6831 12.2912 50.9552 12.4875 51.1785 12.7331C51.4017 12.9787 51.5712 13.2683 51.676 13.5833C51.7808 13.8983 51.8186 14.2317 51.787 14.5621C51.8192 14.8928 51.7819 15.2267 51.6773 15.5423C51.5728 15.8577 51.4034 16.1479 51.1801 16.394C50.9568 16.6401 50.6845 16.8368 50.3806 16.9714C50.0767 17.106 49.7481 17.1755 49.4157 17.1755C49.0834 17.1755 48.7547 17.106 48.4509 16.9714C48.1469 16.8368 47.8746 16.6401 47.6512 16.394C47.428 16.1479 47.2586 15.8577 47.154 15.5423C47.0495 15.2267 47.0122 14.8928 47.0444 14.5621ZM50.7663 14.5621C50.7663 13.4722 50.2766 12.8347 49.4173 12.8347C48.5548 12.8347 48.0695 13.4722 48.0695 14.5621C48.0695 15.6608 48.5548 16.2932 49.4173 16.2932C50.2767 16.2932 50.7663 15.6565 50.7663 14.5621Z" fill="white"/>
<path d="M58.0915 17.079H57.0621L56.0229 13.3757H55.9444L54.9095 17.079H53.8899L52.5039 12.0508H53.5104L54.4112 15.8876H54.4853L55.5191 12.0508H56.471L57.5049 15.8876H57.5833L58.4797 12.0508H59.4721L58.0915 17.079Z" fill="white"/>
<path d="M60.6371 12.0512H61.5925V12.85H61.6666C61.7923 12.5631 62.0045 12.3226 62.2735 12.1621C62.5425 12.0014 62.8548 11.9288 63.167 11.9542C63.4118 11.9358 63.6575 11.9727 63.8859 12.0621C64.1144 12.1515 64.3197 12.2912 64.4869 12.4708C64.6541 12.6504 64.7787 12.8654 64.8514 13.0997C64.9243 13.334 64.9434 13.5816 64.9075 13.8243V17.0794H63.9151V14.0735C63.9151 13.2655 63.564 12.8636 62.8301 12.8636C62.664 12.8559 62.4982 12.8842 62.3441 12.9465C62.1899 13.0089 62.051 13.1038 61.9369 13.2249C61.823 13.3458 61.7364 13.4902 61.6834 13.6477C61.6302 13.8053 61.6119 13.9726 61.6295 14.1379V17.0795H60.6371V12.0512Z" fill="white"/>
<path d="M66.4895 10.0879H67.4818V17.0791H66.4895V10.0879Z" fill="white"/>
<path d="M68.8616 14.5622C68.8301 14.2318 68.8678 13.8984 68.9726 13.5834C69.0775 13.2684 69.2469 12.9788 69.4703 12.7331C69.6935 12.4875 69.9657 12.2912 70.2693 12.1568C70.5729 12.0225 70.9012 11.9531 71.2331 11.9531C71.5651 11.9531 71.8934 12.0225 72.197 12.1568C72.5006 12.2912 72.7727 12.4875 72.9961 12.7331C73.2193 12.9788 73.3888 13.2684 73.4936 13.5834C73.5984 13.8984 73.6363 14.2318 73.6046 14.5622C73.6368 14.893 73.5994 15.2268 73.4949 15.5424C73.3904 15.8578 73.221 16.148 72.9976 16.3941C72.7743 16.6402 72.5019 16.8369 72.198 16.9714C71.8942 17.1061 71.5655 17.1756 71.2331 17.1756C70.9008 17.1756 70.5721 17.1061 70.2682 16.9714C69.9643 16.8369 69.6919 16.6402 69.4686 16.3941C69.2453 16.148 69.0759 15.8578 68.9713 15.5424C68.8668 15.2268 68.8294 14.893 68.8616 14.5622ZM72.5835 14.5622C72.5835 13.4723 72.0938 12.8348 71.2345 12.8348C70.3719 12.8348 69.8867 13.4723 69.8867 14.5622C69.8867 15.6609 70.372 16.2933 71.2345 16.2933C72.0938 16.2933 72.5835 15.6566 72.5835 14.5622Z" fill="white"/>
<path d="M74.6481 15.6565C74.6481 14.7513 75.3221 14.2295 76.5184 14.1554L77.8804 14.0769V13.6428C77.8804 13.1118 77.5292 12.8119 76.8509 12.8119C76.297 12.8119 75.9131 13.0153 75.803 13.3708H74.8422C74.9437 12.5071 75.7561 11.9531 76.8967 11.9531C78.1573 11.9531 78.8684 12.5807 78.8684 13.6428V17.0784H77.9131V16.3719H77.8345C77.6752 16.6253 77.4514 16.8319 77.1861 16.9707C76.9207 17.1093 76.6233 17.1751 76.3242 17.1614C76.1132 17.1833 75.8998 17.1608 75.698 17.0952C75.4961 17.0297 75.3102 16.9226 75.1523 16.7808C74.9944 16.6389 74.8679 16.4657 74.7811 16.272C74.6943 16.0784 74.649 15.8687 74.6481 15.6565ZM77.8804 15.2268V14.8064L76.6525 14.8849C75.96 14.9313 75.646 15.1668 75.646 15.6101C75.646 16.0626 76.0386 16.326 76.5784 16.326C76.7366 16.342 76.8964 16.3261 77.0482 16.2791C77.2001 16.2321 77.341 16.155 77.4624 16.0524C77.5838 15.9499 77.6835 15.824 77.7553 15.682C77.8271 15.5402 77.8696 15.3854 77.8804 15.2268Z" fill="white"/>
<path d="M80.1733 14.5627C80.1733 12.9739 80.9902 11.9673 82.2606 11.9673C82.5748 11.9529 82.8867 12.0282 83.1598 12.1843C83.4328 12.3406 83.6558 12.5713 83.8025 12.8495H83.8767V10.0879H84.869V17.0791H83.9182V16.2846H83.8396C83.6815 16.5609 83.4508 16.7888 83.1724 16.9435C82.8941 17.098 82.5787 17.1736 82.2606 17.1619C80.9814 17.162 80.1733 16.1554 80.1733 14.5627ZM81.1984 14.5627C81.1984 15.6293 81.7012 16.271 82.542 16.271C83.3784 16.271 83.8953 15.6199 83.8953 14.5671C83.8953 13.5191 83.373 12.8589 82.542 12.8589C81.7066 12.8589 81.1984 13.505 81.1984 14.5627Z" fill="white"/>
<path d="M88.974 14.5621C88.9423 14.2317 88.9802 13.8983 89.085 13.5833C89.1898 13.2683 89.3592 12.9787 89.5825 12.7331C89.8057 12.4875 90.0779 12.2912 90.3814 12.1568C90.685 12.0225 91.0133 11.9531 91.3452 11.9531C91.6772 11.9531 92.0055 12.0225 92.3091 12.1568C92.6126 12.2912 92.8847 12.4875 93.1081 12.7331C93.3313 12.9787 93.5008 13.2683 93.6058 13.5833C93.71 13.8983 93.7482 14.2317 93.7166 14.5621C93.7491 14.8928 93.711 15.2267 93.6068 15.5423C93.5023 15.8577 93.333 16.1479 93.1096 16.394C92.8863 16.6401 92.614 16.8368 92.3101 16.9714C92.0063 17.106 91.6776 17.1755 91.3452 17.1755C91.0129 17.1755 90.6843 17.106 90.3803 16.9714C90.0765 16.8368 89.8041 16.6401 89.5808 16.394C89.3575 16.1479 89.1881 15.8577 89.0836 15.5423C88.9791 15.2267 88.9418 14.8928 88.974 14.5621ZM92.6958 14.5621C92.6958 13.4722 92.2062 12.8347 91.3469 12.8347C90.4844 12.8347 89.9991 13.4722 89.9991 14.5621C89.9991 15.6608 90.4844 16.2932 91.3469 16.2932C92.2062 16.2932 92.6958 15.6565 92.6958 14.5621Z" fill="white"/>
<path d="M95.0491 12.0512H96.0048V12.85H96.0792C96.2048 12.5631 96.417 12.3226 96.6859 12.1621C96.9548 12.0014 97.2675 11.9288 97.5792 11.9542C97.824 11.9358 98.0697 11.9727 98.2986 12.0621C98.5266 12.1515 98.7322 12.2912 98.8997 12.4708C99.0663 12.6504 99.191 12.8654 99.2636 13.0997C99.3371 13.334 99.3557 13.5816 99.3203 13.8243V17.0794H98.3274V14.0735C98.3274 13.2655 97.9766 12.8636 97.2424 12.8636C97.0767 12.8559 96.9102 12.8842 96.7566 12.9465C96.6022 13.0089 96.4635 13.1038 96.3491 13.2249C96.2355 13.3458 96.149 13.4902 96.0959 13.6477C96.0429 13.8053 96.0243 13.9726 96.042 14.1379V17.0795H95.0491V12.0512Z" fill="white"/>
<path d="M104.927 10.7988V12.0737H106.017V12.9095H104.927V15.4951C104.927 16.0218 105.145 16.2524 105.638 16.2524C105.764 16.252 105.891 16.2443 106.017 16.2296V17.0561C105.839 17.088 105.657 17.1049 105.477 17.1068C104.373 17.1068 103.934 16.7186 103.934 15.7492V12.9095H103.136V12.0736H103.934V10.7988H104.927Z" fill="white"/>
<path d="M107.372 10.0879H108.356V12.8588H108.434C108.566 12.5693 108.784 12.3274 109.059 12.1662C109.333 12.005 109.65 11.9323 109.968 11.9581C110.211 11.9448 110.454 11.9855 110.68 12.0771C110.906 12.1687 111.109 12.309 111.274 12.4881C111.44 12.6671 111.564 12.8805 111.637 13.1129C111.711 13.3453 111.731 13.5911 111.7 13.8326V17.0791H110.706V14.0775C110.706 13.2743 110.332 12.8676 109.631 12.8676C109.46 12.8536 109.288 12.877 109.127 12.9362C108.967 12.9955 108.821 13.0891 108.701 13.2106C108.58 13.332 108.488 13.4783 108.43 13.6392C108.372 13.8002 108.35 13.9718 108.364 14.1423V17.0791H107.372V10.0879Z" fill="white"/>
<path d="M117.484 15.7208C117.349 16.1804 117.057 16.578 116.658 16.8438C116.26 17.1098 115.781 17.2272 115.305 17.1756C114.974 17.1843 114.645 17.1209 114.34 16.9897C114.036 16.8584 113.763 16.6626 113.543 16.4156C113.321 16.1686 113.158 15.8766 113.061 15.5597C112.964 15.2427 112.937 14.9085 112.983 14.5803C112.938 14.2509 112.965 13.916 113.062 13.5982C113.159 13.2803 113.322 12.9869 113.542 12.7378C113.762 12.4886 114.032 12.2897 114.336 12.1543C114.639 12.019 114.969 11.9504 115.301 11.9532C116.699 11.9532 117.543 12.9091 117.543 14.488V14.8343H113.993V14.8899C113.978 15.0745 114.001 15.2602 114.061 15.4353C114.122 15.6103 114.219 15.7707 114.344 15.9064C114.471 16.042 114.623 16.1497 114.794 16.2228C114.964 16.2958 115.147 16.3325 115.332 16.3304C115.57 16.3589 115.81 16.3162 116.023 16.2076C116.236 16.0991 116.412 15.9297 116.528 15.7208H117.484ZM113.993 14.1004H116.533C116.546 13.9317 116.523 13.7621 116.466 13.6028C116.409 13.4434 116.319 13.2977 116.202 13.175C116.086 13.0524 115.945 12.9554 115.788 12.8905C115.633 12.8255 115.465 12.794 115.295 12.7978C115.124 12.7956 114.954 12.8279 114.795 12.8926C114.635 12.9573 114.491 13.0532 114.369 13.1746C114.248 13.296 114.152 13.4404 114.087 13.5995C114.023 13.7585 113.991 13.9288 113.993 14.1004Z" fill="white"/>
<path d="M126.68 1.13281H7.94444C4.08995 1.13281 0.965271 4.25749 0.965271 8.11198V37.8898C0.965271 41.7442 4.08995 44.8689 7.94444 44.8689H126.68C130.534 44.8689 133.659 41.7442 133.659 37.8898V8.11198C133.659 4.25749 130.534 1.13281 126.68 1.13281Z" stroke="#A6A6A6" stroke-width="0.930556"/>
</svg>
