<svg width="153" height="46" viewBox="0 0 153 46" fill="none" xmlns="http://www.w3.org/2000/svg">
<path d="M144.665 1.08594H8.51742C4.65482 1.08594 1.52356 4.2172 1.52356 8.0798V37.9203C1.52356 41.7829 4.65482 44.9142 8.51742 44.9142H144.665C148.527 44.9142 151.659 41.7829 151.659 37.9203V8.0798C151.659 4.2172 148.527 1.08594 144.665 1.08594Z" fill="#050038"/>
<path d="M54.1181 12.0825C54.1181 13.0201 53.8405 13.7667 53.2844 14.3237C52.6529 14.9858 51.8297 15.3172 50.8178 15.3172C49.8488 15.3172 49.0248 14.9814 48.3472 14.3092C47.6685 13.6373 47.3298 12.8042 47.3298 11.8101C47.3298 10.8157 47.6685 9.98307 48.3472 9.31075C49.0248 8.63889 49.8488 8.30273 50.8178 8.30273C51.2987 8.30273 51.759 8.39673 52.1961 8.58428C52.6332 8.77227 52.9838 9.02182 53.2461 9.33436L52.6559 9.92486C52.2114 9.39378 51.5995 9.12846 50.8178 9.12846C50.111 9.12846 49.4999 9.37677 48.9841 9.87372C48.4683 10.3713 48.2105 11.0164 48.2105 11.8101C48.2105 12.604 48.4683 13.2491 48.9841 13.7466C49.4999 14.2436 50.111 14.4919 50.8178 14.4919C51.5676 14.4919 52.1927 14.2422 52.693 13.7423C53.0179 13.4165 53.2058 12.9638 53.256 12.3823H50.8178V11.5759H54.0714C54.1028 11.7512 54.1181 11.9195 54.1181 12.0825Z" fill="white"/>
<path d="M54.119 12.0812H54.0071C54.0061 12.9974 53.7386 13.7089 53.2061 14.2431L53.2049 14.244L53.2045 14.2449C52.593 14.8843 51.807 15.2026 50.8186 15.2039C49.8754 15.2026 49.0859 14.8808 48.4267 14.2286C47.769 13.5751 47.4436 12.7775 47.4424 11.8088C47.4436 10.8397 47.769 10.0424 48.4267 9.38938C49.0859 8.73677 49.8754 8.4146 50.8186 8.41326C51.285 8.41326 51.7292 8.50423 52.1528 8.68563C52.5767 8.86836 52.9116 9.10783 53.1612 9.40516L53.2469 9.33298L53.1678 9.25387L52.5776 9.84482L52.6567 9.92349L52.7429 9.85187C52.2777 9.29449 51.6248 9.0135 50.8186 9.01518C50.0856 9.01428 49.4409 9.27613 48.9076 9.792C48.3691 10.3096 48.0986 10.991 48.0994 11.8088C48.0986 12.6267 48.3691 13.3081 48.9076 13.8256C49.4409 14.3415 50.0856 14.6033 50.8186 14.6024C51.5932 14.6038 52.2533 14.341 52.773 13.82C53.1201 13.472 53.3168 12.9899 53.3684 12.3906L53.3788 12.2691H50.9305V11.6864H54.0721V11.5745L53.9619 11.5942C53.9926 11.7638 54.0071 11.9251 54.0071 12.0812H54.119H54.2309C54.2309 11.9111 54.2151 11.7363 54.1823 11.5545L54.1657 11.4626H50.7067V12.381V12.4929H53.2568V12.381L53.1454 12.3714C53.0961 12.9344 52.9168 13.3584 52.6147 13.6618C52.1339 14.1408 51.5438 14.3773 50.8186 14.3786C50.1381 14.3778 49.5606 14.1434 49.0628 13.6648C48.5698 13.1879 48.3244 12.579 48.3232 11.8088C48.3244 11.0386 48.5698 10.4298 49.0628 9.95279C49.5606 9.4742 50.1381 9.23988 50.8186 9.23898C51.5753 9.24077 52.1467 9.49076 52.5711 9.99568L52.6498 10.0892L53.326 9.41209L53.3985 9.33958L53.3325 9.26125C53.0576 8.93349 52.6913 8.67332 52.241 8.48018C51.7899 8.28647 51.3139 8.18945 50.8186 8.18945C49.8238 8.18856 48.9653 8.53825 48.2689 9.23025C47.57 9.92091 47.2178 10.7891 47.2186 11.8088C47.2178 12.8281 47.57 13.6967 48.2694 14.3878C48.9653 15.0794 49.8238 15.4286 50.8186 15.4277C51.8546 15.4286 52.714 15.0845 53.3661 14.3996L53.2853 14.3223L53.3644 14.4013C53.944 13.8222 54.2316 13.0397 54.2309 12.0812H54.119Z" fill="white"/>
<path d="M59.2777 9.27795H56.2201V11.4068H58.9775V12.2136H56.2201V14.3424H59.2777V15.1673H55.3581V8.45312H59.2777V9.27795Z" fill="white"/>
<path d="M59.2767 9.27853V9.16662H56.1072V11.5193H58.8645V12.1019L56.1072 12.1023V14.4549H59.1648V15.0559H55.469V8.5656H59.1648V9.27853H59.2767V9.16662V9.27853H59.3886V8.4537V8.3418H55.2452V15.2797H59.3886V14.343V14.2311H56.331V12.3261H59.0884V11.4074V11.2955H56.331V9.39043H59.3886V9.27853H59.2767Z" fill="white"/>
<path d="M62.916 15.1673H62.0527V9.27795H60.1774V8.45312H64.7912V9.27795H62.916V15.1673Z" fill="white"/>
<path d="M62.9149 15.1678V15.0559H62.1635V9.16662H60.2882V8.5656H64.6782V9.16662H62.803V15.1678H62.9149V15.0559V15.1678H63.0268V9.39043H64.902V8.4537V8.3418H60.0644V9.27853V9.39043H61.9397V15.2797H62.9149H63.0268V15.1678H62.9149Z" fill="white"/>
<path d="M68.1292 15.1673V8.45312H68.9916V15.1673H68.1292Z" fill="white"/>
<path d="M68.1281 15.1678H68.24V8.5656H68.8787V15.0559H68.1281V15.1678H68.24H68.1281V15.2797H68.9906H69.1025V8.3418H68.1281H68.0162V15.2797H68.1281V15.1678Z" fill="white"/>
<path d="M72.8184 15.1673H71.955V9.27795H70.0798V8.45312H74.6935V9.27795H72.8184V15.1673Z" fill="white"/>
<path d="M72.8173 15.1678V15.0559H72.0659V9.16662H70.1907V8.5656H74.5806V9.16662H72.7054V15.1678H72.8173V15.0559V15.1678H72.9292V9.39043H74.8044V8.4537V8.3418H69.9669V9.27853V9.39043H71.8421V15.2797H72.8173H72.9292V15.1678H72.8173Z" fill="white"/>
<path d="M79.1405 13.7375C79.6374 14.2406 80.2455 14.4919 80.9646 14.4919C81.6836 14.4919 82.2921 14.2406 82.7883 13.7375C83.2857 13.2344 83.5349 12.5912 83.5349 11.8101C83.5349 11.0291 83.2857 10.386 82.7883 9.8829C82.2921 9.37979 81.6836 9.12846 80.9646 9.12846C80.2455 9.12846 79.6374 9.37979 79.1405 9.8829C78.6443 10.386 78.3952 11.0291 78.3952 11.8101C78.3952 12.5912 78.6443 13.2344 79.1405 13.7375ZM83.4264 14.2996C82.7663 14.9784 81.9454 15.3172 80.9646 15.3172C79.9827 15.3172 79.1623 14.9784 78.5037 14.2996C77.8431 13.6216 77.5145 12.7915 77.5145 11.8101C77.5145 10.8288 77.8431 9.99874 78.5037 9.32082C79.1623 8.64191 79.9827 8.30273 80.9646 8.30273C81.9403 8.30273 82.7589 8.6437 83.422 9.32518C84.0843 10.0067 84.4156 10.8349 84.4156 11.8101C84.4156 12.7915 84.0851 13.6216 83.4264 14.2996Z" fill="white"/>
<path d="M79.1414 13.7361L79.0617 13.8148C79.5772 14.338 80.2202 14.6038 80.9655 14.6024C81.7103 14.6038 82.3542 14.338 82.8686 13.8148C83.3875 13.2911 83.6484 12.6135 83.6477 11.8088C83.6484 11.0041 83.3875 10.3265 82.8686 9.80286C82.3542 9.2796 81.7103 9.01384 80.9655 9.01518C80.2202 9.01384 79.5772 9.2796 79.0617 9.80286C78.5442 10.3265 78.2828 11.0041 78.2842 11.8088C78.2828 12.6135 78.5442 13.2911 79.0617 13.8148L79.1414 13.7361L79.2209 13.6574C78.7463 13.1743 78.5088 12.5667 78.508 11.8088C78.5088 11.0509 78.7463 10.4433 79.2209 9.96015C79.6999 9.47722 80.2721 9.24033 80.9655 9.23898C81.6582 9.24033 82.2317 9.47722 82.7095 9.96015C83.1851 10.4433 83.4225 11.0509 83.4234 11.8088C83.4225 12.5667 83.1851 13.1743 82.7095 13.6574C82.2317 14.1404 81.6582 14.3773 80.9655 14.3786C80.2721 14.3773 79.6999 14.1404 79.2209 13.6574L79.1414 13.7361ZM83.4273 14.2982L83.3473 14.2204C82.7056 14.8779 81.921 15.2026 80.9655 15.2039C80.0094 15.2026 79.2248 14.8779 78.5844 14.2204L78.5814 14.2169L78.5844 14.2204C77.9441 13.5608 77.6281 12.7653 77.6272 11.8088C77.6281 10.8524 77.9441 10.0569 78.5844 9.39721C79.2248 8.73979 80.0094 8.4146 80.9655 8.41326C81.9149 8.4146 82.6977 8.74113 83.3429 9.40202C83.9855 10.0647 84.3033 10.859 84.3046 11.8088C84.3033 12.7653 83.9863 13.5608 83.3473 14.2204L83.4273 14.2982L83.5078 14.376C84.1861 13.6792 84.5292 12.815 84.5284 11.8088C84.5292 10.8083 84.1848 9.94589 83.5033 9.24602C82.8214 8.5435 81.9673 8.18823 80.9655 8.18946C79.9583 8.18823 79.1016 8.54183 78.4241 9.24166V9.24121C77.7444 9.93836 77.4025 10.8026 77.4034 11.8088C77.4025 12.815 77.7444 13.6792 78.4241 14.3764L78.4271 14.3795L78.4241 14.376C79.1016 15.0757 79.9583 15.4286 80.9655 15.4277C81.9721 15.4286 82.8288 15.0757 83.5078 14.376L83.4273 14.2982Z" fill="white"/>
<path d="M85.6266 15.1673V8.45312H86.6767L89.9397 13.6763H89.9768L89.9397 12.3823V8.45312H90.803V15.1673H89.9025L86.4887 9.69098H86.4515L86.4887 10.9854V15.1673H85.6266Z" fill="white"/>
<path d="M85.6275 15.1678H85.7394V8.5656H86.6153L89.8783 13.7887H89.9777H90.0925L90.0523 12.3812V8.5656H90.6919V15.0559H89.9654L86.5515 9.57966H86.4523H86.3373L86.3775 10.9877V15.0559H85.6275V15.1678H85.7394H85.6275V15.2797H86.4894H86.6013V10.9841L86.5642 9.68854L86.4523 9.69156V9.80346H86.4894V9.69156L86.3946 9.75109L89.8412 15.2797H90.8038H90.9157V8.3418H89.9404H89.8285V12.3843L89.8657 13.6798L89.9777 13.6768V13.5649H89.9404V13.6768L90.0354 13.6174L86.7394 8.3418H85.6275H85.5156V15.2797H85.6275V15.1678Z" fill="white"/>
<path d="M120.721 34.1896H122.809V20.2006H120.721V34.1896ZM139.528 25.2397L137.134 31.3047H137.063L134.578 25.2397H132.329L136.054 33.7166L133.931 38.4318H136.109L141.85 25.2397H139.528ZM127.687 32.6007C127.001 32.6007 126.048 32.2588 126.048 31.4126C126.048 30.3329 127.236 29.9189 128.261 29.9189C129.181 29.9189 129.611 30.1169 130.17 30.3872C130.008 31.6828 128.892 32.6007 127.687 32.6007ZM127.938 24.9336C126.427 24.9336 124.861 25.5998 124.213 27.0755L126.066 27.8492C126.462 27.0755 127.2 26.8234 127.974 26.8234C129.054 26.8234 130.151 27.4716 130.17 28.6234V28.7672C129.791 28.5512 128.982 28.2274 127.992 28.2274C125.994 28.2274 123.96 29.3249 123.96 31.3767C123.96 33.2485 125.598 34.4545 127.433 34.4545C128.838 34.4545 129.611 33.8246 130.098 33.0868H130.17V34.1665H132.185V28.803C132.185 26.3198 130.332 24.9336 127.938 24.9336ZM115.033 26.9426H112.064V22.1475H115.033C116.594 22.1475 117.481 23.44 117.481 24.545C117.481 25.6291 116.594 26.9426 115.033 26.9426ZM114.98 20.2006H109.976V34.1896H112.064V28.8896H114.98C117.294 28.8896 119.569 27.2141 119.569 24.545C119.569 21.876 117.294 20.2006 114.98 20.2006ZM87.6972 32.6033C86.2547 32.6033 85.0469 31.3955 85.0469 29.7367C85.0469 28.0604 86.2547 26.8343 87.6972 26.8343C89.1213 26.8343 90.239 28.0604 90.239 29.7367C90.239 31.3955 89.1213 32.6033 87.6972 32.6033ZM90.0948 26.023H90.0226C89.5541 25.4643 88.6523 24.9595 87.5167 24.9595C85.137 24.9595 82.9558 27.0506 82.9558 29.7367C82.9558 32.4048 85.137 34.4781 87.5167 34.4781C88.6523 34.4781 89.5541 33.9732 90.0226 33.3967H90.0948V34.0816C90.0948 35.9027 89.1213 36.8762 87.5529 36.8762C86.2731 36.8762 85.4798 35.9564 85.1549 35.1814L83.3343 35.9385C83.8572 37.2004 85.2454 38.751 87.5529 38.751C90.0047 38.751 92.078 37.3084 92.078 33.7932V25.248H90.0948V26.023ZM93.52 34.1896H95.611V20.2001H93.52V34.1896ZM98.6939 29.5746C98.6398 27.7356 100.119 26.7984 101.182 26.7984C102.012 26.7984 102.714 27.2128 102.948 27.8082L98.6939 29.5746ZM105.184 27.9883C104.788 26.9243 103.579 24.9595 101.11 24.9595C98.6575 24.9595 96.6209 26.8885 96.6209 29.7188C96.6209 32.3869 98.6398 34.4781 101.344 34.4781C103.525 34.4781 104.788 33.144 105.311 32.3689L103.688 31.2871C103.148 32.0805 102.408 32.6033 101.344 32.6033C100.28 32.6033 99.5238 32.1164 99.0361 31.1612L105.4 28.5289L105.184 27.9883ZM54.4834 26.4198V28.4389H59.3148C59.1705 29.5746 58.7919 30.4038 58.215 30.9807C57.5121 31.684 56.4123 32.459 54.4834 32.459C51.5087 32.459 49.1833 30.0614 49.1833 27.0869C49.1833 24.1123 51.5087 21.7143 54.4834 21.7143C56.0879 21.7143 57.2594 22.3454 58.1249 23.1567L59.549 21.7327C58.3413 20.5787 56.7367 19.6953 54.4834 19.6953C50.4089 19.6953 46.9838 23.0125 46.9838 27.0869C46.9838 31.1612 50.4089 34.4781 54.4834 34.4781C56.683 34.4781 58.3413 33.7574 59.6391 32.4048C60.9733 31.0708 61.3881 29.196 61.3881 27.6818C61.3881 27.2128 61.3521 26.7805 61.2796 26.4198H54.4834ZM66.8808 32.6033C65.4383 32.6033 64.1944 31.4134 64.1944 29.7188C64.1944 28.0062 65.4383 26.8343 66.8808 26.8343C68.3229 26.8343 69.5669 28.0062 69.5669 29.7188C69.5669 31.4134 68.3229 32.6033 66.8808 32.6033ZM66.8808 24.9595C64.2485 24.9595 62.1031 26.9605 62.1031 29.7188C62.1031 32.459 64.2485 34.4781 66.8808 34.4781C69.5127 34.4781 71.6581 32.459 71.6581 29.7188C71.6581 26.9605 69.5127 24.9595 66.8808 24.9595ZM77.3025 32.6033C75.8606 32.6033 74.6164 31.4134 74.6164 29.7188C74.6164 28.0062 75.8606 26.8343 77.3025 26.8343C78.7446 26.8343 79.9887 28.0062 79.9887 29.7188C79.9887 31.4134 78.7446 32.6033 77.3025 32.6033ZM77.3025 24.9595C74.6702 24.9595 72.5254 26.9605 72.5254 29.7188C72.5254 32.459 74.6702 34.4781 77.3025 34.4781C79.9345 34.4781 82.0798 32.459 82.0798 29.7188C82.0798 26.9605 79.9345 24.9595 77.3025 24.9595Z" fill="white"/>
<path d="M12.8176 36.864L12.7344 36.7844C12.4088 36.4398 12.2166 35.9049 12.2166 35.2121V35.3751V10.6269C12.2166 10.6246 12.2166 10.623 12.2166 10.6212C12.2166 10.6233 12.2166 10.6251 12.2166 10.6274V10.7908C12.2166 10.0407 12.4407 9.47556 12.8162 9.13672L26.6807 23.0008L12.8176 36.864ZM12.2166 10.6199C12.2166 10.5583 12.2183 10.4984 12.2214 10.4394C12.2183 10.4979 12.2166 10.5583 12.2166 10.6199ZM12.2214 10.4367C12.2214 10.4359 12.2214 10.435 12.2217 10.4341C12.2214 10.435 12.2214 10.4359 12.2214 10.4367ZM12.2217 10.4288C12.2217 10.4284 12.2217 10.428 12.2217 10.4275C12.2217 10.428 12.2217 10.4284 12.2217 10.4288Z" fill="url(#paint0_linear_1_463)"/>
<path d="M31.3022 27.7879L31.4077 27.728L36.883 24.6171C37.405 24.3202 37.7528 23.9605 37.9264 23.5798C37.7533 23.9605 37.4053 24.3207 36.883 24.6174L31.4077 27.7285L31.3022 27.7879ZM31.3036 27.624L26.6815 23.001L31.3032 18.3789L36.883 21.5489C37.5915 21.9516 37.9893 22.4704 38.0558 23.0006C38.0558 23.001 38.0558 23.0019 38.0558 23.0027C37.9893 23.5317 37.5915 24.051 36.883 24.4535L31.3036 27.624Z" fill="url(#paint1_linear_1_463)"/>
<path d="M13.8055 37.3911C13.4182 37.3911 13.0803 37.2652 12.8168 37.0275L12.8172 37.027C13.0808 37.2648 13.4191 37.3911 13.8065 37.3911C13.84 37.3911 13.8742 37.3902 13.9087 37.3885C13.8737 37.3902 13.8391 37.3911 13.8055 37.3911ZM13.806 37.2272C13.4187 37.2277 13.0808 37.1013 12.8172 36.8635V36.8631L26.6803 23L31.3024 27.6229L15.0596 36.8518C14.6102 37.1065 14.1844 37.2272 13.806 37.2272ZM12.8133 37.0244C12.7888 37.0022 12.7647 36.9785 12.7411 36.9541L12.8133 37.0244Z" fill="url(#paint2_linear_1_463)"/>
<path d="M26.6802 23.0002L12.8157 9.1361C13.0793 8.89875 13.4168 8.77286 13.8036 8.77286C14.1831 8.77286 14.6092 8.89394 15.0596 9.14919L31.3018 18.3781L26.6802 23.0002ZM31.4064 18.2736L15.0596 8.98581C14.6092 8.73045 14.1831 8.60938 13.8036 8.60938C13.8019 8.60938 13.8007 8.60938 13.7988 8.60938C13.801 8.60938 13.8027 8.60938 13.8054 8.60938C14.184 8.60938 14.6097 8.73001 15.0596 8.98537L31.4064 18.2736Z" fill="url(#paint3_linear_1_463)"/>
<path d="M13.9085 37.3888C14.2603 37.3687 14.6498 37.2476 15.0594 37.0156L31.3008 27.7871L15.0594 37.0156C14.6501 37.248 14.2603 37.3687 13.9085 37.3888ZM12.8165 37.0277L12.813 37.0247C12.8142 37.0256 12.8156 37.0268 12.8165 37.0277ZM12.7409 36.9543L12.7338 36.9474V36.9469C12.7365 36.9495 12.7386 36.9521 12.7409 36.9543Z" fill="black"/>
<path d="M31.3021 27.7884L31.4076 27.7285L31.3021 27.7884Z" fill="url(#paint4_linear_1_463)"/>
<path d="M13.8062 37.3913C13.4189 37.3913 13.0805 37.265 12.8169 37.0272L12.8165 37.0276C12.8156 37.0267 12.8142 37.0255 12.813 37.0246L12.7409 36.9543C12.7386 36.952 12.7365 36.9494 12.7338 36.9468L12.8169 36.8637C13.0805 37.1015 13.4184 37.2279 13.8057 37.2274C14.1842 37.2274 14.61 37.1067 15.0594 36.852L31.3021 27.623L31.4062 27.7271L31.3008 27.787L15.0594 37.0154C14.6498 37.2475 14.2603 37.3686 13.9085 37.3887C13.8739 37.3904 13.8397 37.3913 13.8062 37.3913Z" fill="url(#paint5_linear_1_463)"/>
<path d="M12.7344 36.9478C12.4088 36.6032 12.2166 36.0682 12.2166 35.3755V35.375C12.2166 36.0682 12.4088 36.6027 12.7344 36.9473V36.9478Z" fill="black"/>
<path d="M12.7344 36.9483C12.4088 36.6037 12.2166 36.0692 12.2166 35.376V35.2129C12.2166 35.9057 12.4088 36.4407 12.7344 36.7853L12.8176 36.8648L12.7344 36.9483Z" fill="url(#paint6_linear_1_463)"/>
<path d="M12.7338 36.9467L12.8169 36.8633V36.8636L12.7338 36.9467Z" fill="url(#paint7_linear_1_463)"/>
<path d="M37.9263 23.5798C38.0123 23.3909 38.0557 23.1968 38.0557 23.0027C38.0557 23.0024 38.0557 23.002 38.0557 23.002C38.0557 23.1964 38.0123 23.3904 37.9263 23.5798Z" fill="black"/>
<path d="M31.4062 27.7272L31.3021 27.6231L36.8815 24.4528C37.5901 24.0502 37.9879 23.5309 38.0543 23.002C38.0543 23.1961 38.011 23.3902 37.9249 23.579C37.7514 23.9597 37.4035 24.3195 36.8815 24.6162L31.4062 27.7272Z" fill="url(#paint8_linear_1_463)"/>
<path d="M38.0546 23V22.9995C38.0541 22.4142 37.6629 21.8289 36.8816 21.3848L31.4065 18.2738H31.406L31.4065 18.2734L36.8816 21.3843C37.6637 21.8285 38.0554 22.4146 38.0546 23Z" fill="#404040"/>
<path d="M38.0547 23.0011C37.9883 22.4709 37.5905 21.952 36.8819 21.5494L31.3021 18.3795L31.4062 18.2754H31.4067L36.8819 21.3864C37.6631 21.8305 38.0543 22.4158 38.0547 23.0011Z" fill="url(#paint9_linear_1_463)"/>
<path d="M12.2166 10.6206C12.2166 10.6201 12.2166 10.6197 12.2166 10.6192C12.2166 10.6197 12.2166 10.6201 12.2166 10.6206ZM12.2214 10.4388C12.2214 10.4378 12.2214 10.437 12.2214 10.4361C12.2214 10.437 12.2214 10.4378 12.2214 10.4388ZM12.2217 10.4334C12.2217 10.4317 12.2217 10.43 12.2217 10.4282C12.2217 10.43 12.2217 10.4317 12.2217 10.4334ZM12.2217 10.4269C12.2866 9.27732 12.9116 8.61329 13.7958 8.60938C13.4125 8.61161 13.0785 8.7375 12.8172 8.97306V8.97261L12.814 8.97574C12.7865 9.00058 12.7603 9.02688 12.7344 9.05396C12.4407 9.36471 12.2554 9.83022 12.2217 10.4269Z" fill="#404040"/>
<path d="M12.2166 10.7902V10.6268C12.2166 10.6245 12.2166 10.6228 12.2166 10.6206C12.2166 10.6202 12.2166 10.6197 12.2166 10.6193C12.2166 10.5576 12.2183 10.4973 12.2214 10.4388C12.2214 10.4379 12.2214 10.437 12.2214 10.4361C12.2214 10.4353 12.2214 10.4344 12.2217 10.4336C12.2217 10.4317 12.2217 10.43 12.2217 10.4282C12.2217 10.4278 12.2217 10.4274 12.2217 10.4269C12.2554 9.83027 12.4407 9.36476 12.7344 9.05401L12.8162 9.13615C12.4407 9.47498 12.2166 10.04 12.2166 10.7902ZM12.814 8.97579L12.8172 8.97266C12.8162 8.974 12.8149 8.97489 12.814 8.97579Z" fill="url(#paint10_linear_1_463)"/>
<path d="M31.3016 18.378L15.0594 9.14919C14.6091 8.89394 14.1829 8.77286 13.8035 8.77286C13.4166 8.77286 13.0792 8.89875 12.8156 9.1361L12.7338 9.05396C12.7597 9.02688 12.7858 9.00058 12.8134 8.97574C12.8142 8.97485 12.8156 8.97395 12.8165 8.97306C13.0779 8.7375 13.4118 8.61161 13.7952 8.60938C13.7961 8.60938 13.7973 8.60938 13.7987 8.60938C13.8005 8.60938 13.8017 8.60938 13.8035 8.60938C14.1829 8.60938 14.6091 8.73045 15.0594 8.98581L31.4062 18.2737L31.4057 18.274L31.3016 18.378Z" fill="url(#paint11_linear_1_463)"/>
<path d="M144.665 1.08594H8.51742C4.65482 1.08594 1.52356 4.2172 1.52356 8.0798V37.9203C1.52356 41.7829 4.65482 44.9142 8.51742 44.9142H144.665C148.527 44.9142 151.659 41.7829 151.659 37.9203V8.0798C151.659 4.2172 148.527 1.08594 144.665 1.08594Z" stroke="#A6A6A6" stroke-width="0.932515"/>
<defs>
<linearGradient id="paint0_linear_1_463" x1="25.4513" y1="10.3659" x2="6.67138" y2="29.1458" gradientUnits="userSpaceOnUse">
<stop stop-color="#00A0FF"/>
<stop offset="0.00657445" stop-color="#00A1FF"/>
<stop offset="0.2601" stop-color="#00BEFF"/>
<stop offset="0.5122" stop-color="#00D2FF"/>
<stop offset="0.7604" stop-color="#00DFFF"/>
<stop offset="1" stop-color="#00E3FF"/>
</linearGradient>
<linearGradient id="paint1_linear_1_463" x1="38.9191" y1="23.0018" x2="11.8422" y2="23.0018" gradientUnits="userSpaceOnUse">
<stop stop-color="#FFE000"/>
<stop offset="0.4087" stop-color="#FFBD00"/>
<stop offset="0.7754" stop-color="#FFA500"/>
<stop offset="1" stop-color="#FF9C00"/>
</linearGradient>
<linearGradient id="paint2_linear_1_463" x1="28.8384" y1="25.5684" x2="3.37146" y2="51.0354" gradientUnits="userSpaceOnUse">
<stop stop-color="#FF3A44"/>
<stop offset="1" stop-color="#C31162"/>
</linearGradient>
<linearGradient id="paint3_linear_1_463" x1="9.22226" y1="0.816082" x2="20.5943" y2="12.1881" gradientUnits="userSpaceOnUse">
<stop stop-color="#32A071"/>
<stop offset="0.0685" stop-color="#2DA771"/>
<stop offset="0.4762" stop-color="#15CF74"/>
<stop offset="0.8009" stop-color="#06E775"/>
<stop offset="1" stop-color="#00F076"/>
</linearGradient>
<linearGradient id="paint4_linear_1_463" x1="38.9188" y1="23.0022" x2="11.8427" y2="23.0022" gradientUnits="userSpaceOnUse">
<stop stop-color="#CCB300"/>
<stop offset="0.4087" stop-color="#CC9700"/>
<stop offset="0.7754" stop-color="#CC8400"/>
<stop offset="1" stop-color="#CC7D00"/>
</linearGradient>
<linearGradient id="paint5_linear_1_463" x1="28.8381" y1="25.5686" x2="3.3712" y2="51.0356" gradientUnits="userSpaceOnUse">
<stop stop-color="#CC2E36"/>
<stop offset="1" stop-color="#9C0E4E"/>
</linearGradient>
<linearGradient id="paint6_linear_1_463" x1="25.4513" y1="10.3667" x2="6.67137" y2="29.1466" gradientUnits="userSpaceOnUse">
<stop stop-color="#008DE0"/>
<stop offset="0.00657445" stop-color="#008DE0"/>
<stop offset="0.2601" stop-color="#00A7E0"/>
<stop offset="0.5122" stop-color="#00B8E0"/>
<stop offset="0.7604" stop-color="#00C4E0"/>
<stop offset="1" stop-color="#00C7E0"/>
</linearGradient>
<linearGradient id="paint7_linear_1_463" x1="28.8384" y1="25.5685" x2="3.37126" y2="51.0359" gradientUnits="userSpaceOnUse">
<stop stop-color="#E0333C"/>
<stop offset="1" stop-color="#AB0F56"/>
</linearGradient>
<linearGradient id="paint8_linear_1_463" x1="38.9176" y1="23.0009" x2="11.8408" y2="23.0009" gradientUnits="userSpaceOnUse">
<stop stop-color="#E0C500"/>
<stop offset="0.4087" stop-color="#E0A600"/>
<stop offset="0.7754" stop-color="#E09100"/>
<stop offset="1" stop-color="#E08900"/>
</linearGradient>
<linearGradient id="paint9_linear_1_463" x1="38.9181" y1="23.0022" x2="11.8412" y2="23.0022" gradientUnits="userSpaceOnUse">
<stop stop-color="#FFE840"/>
<stop offset="0.4087" stop-color="#FFCE40"/>
<stop offset="0.7754" stop-color="#FFBC40"/>
<stop offset="1" stop-color="#FFB540"/>
</linearGradient>
<linearGradient id="paint10_linear_1_463" x1="25.4512" y1="10.3653" x2="6.67138" y2="29.1451" gradientUnits="userSpaceOnUse">
<stop stop-color="#40B8FF"/>
<stop offset="0.00657445" stop-color="#40B9FF"/>
<stop offset="0.2601" stop-color="#40CEFF"/>
<stop offset="0.5122" stop-color="#40DDFF"/>
<stop offset="0.7604" stop-color="#40E7FF"/>
<stop offset="1" stop-color="#40EAFF"/>
</linearGradient>
<linearGradient id="paint11_linear_1_463" x1="9.2221" y1="0.816087" x2="20.5941" y2="12.1881" gradientUnits="userSpaceOnUse">
<stop stop-color="#65B895"/>
<stop offset="0.0685" stop-color="#62BD95"/>
<stop offset="0.4762" stop-color="#50DB97"/>
<stop offset="0.8009" stop-color="#44ED98"/>
<stop offset="1" stop-color="#40F498"/>
</linearGradient>
</defs>
</svg>
