<svg width="173" height="24" viewBox="0 0 173 24" fill="none" xmlns="http://www.w3.org/2000/svg">
<path d="M164.953 0H8.04653C3.60253 0 0 3.73753 0 8.34783V15.6522C0 20.2626 3.60253 24 8.04653 24H164.953C169.398 24 173 20.2626 173 15.6522V8.34783C173 3.73753 169.398 0 164.953 0Z" fill="#FFD02F"/>
<path d="M16.06 11.2802L14.3769 8.14478H12.6497L15.3891 13.205L15.3893 15.9994L17.0393 15.9989L17.0392 13.2054L19.7894 8.14497L18.0509 8.14487L16.3676 11.2798L16.06 11.2802Z" fill="#090909"/>
<path d="M24.0593 8.00171C21.5734 8.00131 20.2315 9.76111 20.2317 12.0711C20.2308 14.3814 21.5728 16.1411 24.0597 16.1413C26.5456 16.1416 27.8875 14.3819 27.8874 12.0718C27.8873 9.76171 26.545 8.00101 24.0593 8.00171ZM24.0596 14.678C22.5964 14.6781 21.9144 13.523 21.9142 12.071C21.9142 10.6199 22.596 9.46401 24.0594 9.46491C25.5337 9.46391 26.2044 10.619 26.2046 12.071C26.2047 13.523 25.5331 14.6782 24.0596 14.678Z" fill="#090909"/>
<path d="M34.4063 8.14502L34.406 13.0729C34.4062 14.0416 33.8232 14.6795 32.7558 14.6788C31.6998 14.6792 31.106 14.0416 31.1058 13.0729L31.1061 8.14502L29.4673 8.14562L29.4666 13.1061C29.4669 15.0425 30.6549 16.1419 32.7447 16.142C34.8569 16.1422 36.045 15.0422 36.0447 13.1058L36.0454 8.14542L34.4063 8.14502Z" fill="#090909"/>
<path d="M41.6918 8.14634L37.9956 8.14624L37.9963 15.9993L39.6353 15.9997L39.6355 13.0408L41.7578 13.0412L42.8137 15.9998L44.4639 16.0003L43.2869 12.6884C44.0355 12.2924 44.4529 11.5669 44.4529 10.588C44.4533 9.05874 43.4302 8.14554 41.6918 8.14634ZM39.6347 9.58644L41.296 9.58694C42.3744 9.58674 42.7812 9.88364 42.7812 10.6096C42.7809 11.2697 42.4182 11.6433 41.4606 11.6436H39.6349L39.6347 9.58644Z" fill="#090909"/>
<path d="M49.3941 8.146L49.394 16.0003L51.0339 15.9996L51.0332 8.1464L49.3941 8.146Z" fill="#090909"/>
<path d="M56.3335 8.14575L53.0556 8.14595L53.0554 15.9994L56.3334 16.0002C58.743 15.9997 59.9747 14.427 59.975 12.0732C59.9752 9.70715 58.7431 8.14535 56.3335 8.14575ZM56.1252 14.5371L54.6943 14.5365L54.6946 9.60855L56.1243 9.60835C57.7084 9.60825 58.2914 10.7088 58.2922 12.0724C58.2922 13.4259 57.7093 14.537 56.1252 14.5371Z" fill="#090909"/>
<path d="M63.2125 14.5364L63.2126 12.6883L66.4581 12.6888L66.4578 11.2591L63.2123 11.2587L63.2128 9.60846H67.3826V8.14526L61.5738 8.14586L61.5737 16.0002L67.5026 15.9997V14.5365L63.2125 14.5364Z" fill="#090909"/>
<path d="M74.2197 16.0005L75.8817 16L73.3736 8.14624L70.8316 8.14654L68.3345 16.0005L69.9515 15.9996L70.5896 13.8765L73.5817 13.8771L74.2197 16.0005ZM71.8326 9.71854L72.3176 9.71944L73.1416 12.4468L71.0086 12.4472L71.8326 9.71854Z" fill="#090909"/>
<path d="M86.2469 10.3013C86.0819 8.88237 84.8718 8.00307 83.1667 8.00317C81.2637 8.00257 80.2066 9.05917 80.2066 10.3568C80.2076 11.5336 80.9227 12.2707 82.2197 12.5018L83.7158 12.7661C84.3648 12.8761 84.7828 13.1283 84.7828 13.7447C84.7828 14.3722 84.1998 14.735 83.3418 14.735C82.4947 14.735 81.7357 14.4709 81.5927 13.6015L79.9216 13.6018C80.0746 15.1526 81.2967 16.1426 83.2767 16.1427C85.4098 16.1433 86.4329 14.9769 86.4329 13.6681C86.4329 12.2596 85.5308 11.5891 84.2988 11.3686L82.8357 11.1047C82.2977 11.0057 81.8577 10.8183 81.8567 10.3016C81.8567 9.68617 82.4507 9.41077 83.1447 9.41037C83.9578 9.41107 84.4308 9.67497 84.5738 10.3017L86.2469 10.3013Z" fill="#090909"/>
<path d="M93.8809 8.14619L87.3577 8.146V9.5868H89.7998V16.0002L91.4388 16.0007V9.5872L93.8809 9.5871V8.14619Z" fill="#090909"/>
<path d="M99.7419 15.999L101.403 15.9995L98.8948 8.14572L96.3538 8.14502L93.8577 15.9988L95.4737 15.9991L96.1118 13.876L99.1049 13.8764L99.7419 15.999ZM97.3548 9.71812L97.8388 9.71802L98.6648 12.4461L96.5298 12.4467L97.3548 9.71812Z" fill="#090909"/>
<path d="M106.357 8.14424L102.66 8.14404L102.659 15.9984L104.298 15.9988L104.299 13.0398L106.423 13.0391L107.479 15.9987L109.129 15.9982L107.952 12.6872C108.699 12.2914 109.118 11.5657 109.118 10.5868C109.117 9.05774 108.095 8.14434 106.357 8.14424ZM104.299 9.58534L105.961 9.58584C107.038 9.58574 107.446 9.88244 107.446 10.6085C107.446 11.2685 107.083 11.6422 106.126 11.6425H104.299V9.58534Z" fill="#090909"/>
<path d="M116.578 8.14526L110.054 8.14596V9.58676H112.497V15.9993L114.136 15.9997V9.58616L116.578 9.58606V8.14526Z" fill="#090909"/>
<path d="M123.713 10.3013C123.548 8.88237 122.338 8.00317 120.633 8.00317C118.729 8.00267 117.673 9.05897 117.674 10.3567C117.673 11.5337 118.388 12.2707 119.687 12.5019L121.183 12.766C121.832 12.876 122.25 13.1282 122.25 13.7446C122.25 14.3721 121.668 14.7348 120.81 14.7348C119.963 14.7349 119.203 14.4707 119.06 13.6014L117.387 13.6018C117.541 15.1525 118.762 16.1426 120.743 16.1428C122.877 16.1431 123.901 14.9767 123.9 13.6679C123.901 12.2594 122.999 11.5889 121.767 11.3685L120.303 11.1045C119.764 11.0057 119.324 10.8183 119.324 10.3014C119.324 9.68597 119.918 9.41067 120.611 9.41037C121.425 9.41097 121.898 9.67487 122.041 10.3015L123.713 10.3013Z" fill="#090909"/>
<path d="M133.888 8.14575V11.2043L130.412 11.2038V8.14635L128.772 8.14595V16.0003L130.412 15.9997L130.413 12.7106L133.889 12.7111V16L135.528 15.9994V8.14605L133.888 8.14575Z" fill="#090909"/>
<path d="M139.135 14.5364V12.6883L142.38 12.6888V11.2581L139.134 11.2587L139.135 9.60846H143.304V8.14526L137.496 8.14586V15.9992L143.425 15.9997V14.5365L139.135 14.5364Z" fill="#090909"/>
<path d="M148.668 8.14634L144.97 8.14624L144.971 15.9993L146.611 15.9997V13.0408L148.734 13.0412L149.789 15.9998L151.44 16.0003L150.263 12.6893C151.011 12.2924 151.429 11.5669 151.429 10.588C151.429 9.05874 150.406 8.14554 148.668 8.14634ZM146.61 9.58644L148.272 9.58694C149.35 9.58674 149.757 9.88364 149.757 10.6096C149.757 11.2697 149.394 11.6433 148.436 11.6436H146.611L146.61 9.58644Z" fill="#090909"/>
<path d="M154.743 14.5364V12.6884L157.987 12.689L157.988 11.2591L154.742 11.2587V9.60871H158.911V8.14551L153.103 8.14611L153.104 15.9993L159.032 15.9999L159.033 14.5365L154.743 14.5364Z" fill="#090909"/>
</svg>
